# xmcd
#
# Track frame offsets:
#	150
#	13029
#	24320
#	41789
#	53204
#	63555
#	76557
#	82762
#	97348
#	114506
#	124142
#	140993
#	157412
#
# Disc length: 2502 seconds
#
# Revision: 0
# Processed by: cddbd v1.5.1PL0 Copyright (c) Steve Scherf et al.
# Submitted via: dBpowerAMP V4.0
#
DISCID=b009c40d
DTITLE=Myles Boisen - Past - Present - Future
DYEAR=2003
DGENRE=mix
TTITLE0=Abstraction 1 - Indian Hill
TTITLE1=Train
TTITLE2=Brushes
TTITLE3=Highway Duo
TTITLE4=Devil Blues
TTITLE5=Come Out
TTITLE6=Abstraction 2 - Callin' You
TTITLE7=Muddy
TTITLE8=Noh Blues
TTITLE9=Baby Please Don't Go
TTITLE10=Highway Trio
TTITLE11=Mississippi Fred
TTITLE12=Minor Memory
EXTD=
EXTT0=
EXTT1=
EXTT2=
EXTT3=
EXTT4=
EXTT5=
EXTT6=
EXTT7=
EXTT8=
EXTT9=
EXTT10=
EXTT11=
EXTT12=
PLAYORDER=
